<?xml version="1.0" standalone="no"?>
<!DOCTYPE svg PUBLIC "-//W3C//DTD SVG 20010904//EN"
 "http://www.w3.org/TR/2001/REC-SVG-20010904/DTD/svg10.dtd">
<svg version="1.0" xmlns="http://www.w3.org/2000/svg"
 width="1591.000000pt" height="1591.000000pt" viewBox="0 0 1591.000000 1591.000000"
 preserveAspectRatio="xMidYMid meet">
<metadata>
Created by potrace 1.14, written by Peter Selinger 2001-2017
</metadata>
<g transform="translate(0.000000,1591.000000) scale(0.100000,-0.100000)"
fill="#000000" stroke="none">
<path d="M2939 11096 c-2 -2 -31 -7 -64 -10 -89 -10 -124 -15 -190 -32 -33 -9
-70 -18 -83 -20 -93 -18 -335 -123 -467 -202 -242 -146 -483 -383 -634 -625
-120 -194 -213 -434 -250 -652 -6 -33 -13 -73 -17 -90 -3 -16 -7 -113 -9 -215
-3 -164 2 -241 20 -338 13 -70 17 -90 26 -132 24 -110 102 -321 157 -425 263
-494 705 -839 1237 -965 165 -39 184 -41 400 -45 303 -7 528 38 794 155 111
49 274 141 331 187 8 7 42 33 75 58 135 103 309 295 411 453 l41 64 58 -88
c232 -348 565 -603 969 -740 202 -69 369 -93 621 -89 110 1 216 6 235 9 280
51 472 119 690 244 228 130 495 388 625 602 20 33 38 60 40 60 3 0 11 -13 20
-29 43 -83 205 -281 317 -386 107 -101 230 -191 363 -267 61 -34 191 -98 201
-98 3 0 20 -6 37 -14 84 -38 242 -80 417 -112 75 -13 434 -12 530 3 538 80
1004 377 1305 830 l48 73 55 -83 c80 -119 111 -157 217 -267 258 -268 588
-451 954 -530 136 -30 164 -32 381 -34 176 -1 255 4 330 19 14 2 50 10 80 16
239 47 528 180 735 338 281 214 497 503 622 831 41 107 89 283 98 355 3 22 9
67 14 100 10 64 7 406 -3 465 -4 19 -11 58 -17 85 -5 28 -12 66 -15 85 -4 19
-10 43 -15 53 -5 9 -7 17 -5 17 3 0 -12 51 -34 114 -235 681 -820 1162 -1532
1260 -106 15 -351 18 -448 5 -139 -17 -152 -19 -159 -23 -3 -2 -22 -7 -41 -10
-39 -6 -118 -28 -200 -56 -473 -159 -859 -496 -1084 -947 -90 -181 -163 -424
-181 -603 -3 -36 -8 -78 -10 -95 -2 -16 -5 -87 -6 -156 0 -69 -5 -146 -9 -170
-5 -24 -11 -61 -14 -81 -8 -51 -63 -222 -93 -288 -25 -55 -101 -191 -112 -200
-4 -3 -19 -25 -35 -50 -16 -25 -77 -93 -135 -151 -194 -194 -423 -318 -693
-375 -90 -19 -369 -26 -463 -11 -206 32 -445 129 -590 240 -74 56 -100 79
-160 137 -114 113 -198 226 -266 362 -42 83 -104 258 -113 322 -4 21 -8 41
-10 45 -15 25 -23 306 -11 401 17 139 60 288 120 417 122 261 346 493 608 632
73 38 250 104 307 114 62 11 107 20 125 24 42 9 293 11 355 3 81 -12 93 -14
194 -41 45 -12 105 -21 134 -21 135 2 248 120 245 257 -3 153 -81 230 -283
279 -100 24 -121 28 -235 44 -109 15 -439 7 -530 -13 -11 -3 -31 -7 -45 -9
-283 -47 -626 -212 -863 -416 -127 -110 -277 -281 -362 -413 -20 -32 -38 -57
-40 -55 -2 2 -25 35 -51 73 -197 292 -444 508 -749 655 -285 138 -529 191
-850 185 -189 -4 -204 -5 -355 -36 -385 -79 -763 -298 -1021 -592 -86 -98
-203 -267 -263 -380 -93 -176 -172 -430 -195 -629 -7 -51 -13 -159 -16 -239
-5 -163 -16 -247 -46 -359 -75 -272 -237 -519 -459 -698 -86 -69 -76 -63 -147
-105 -151 -91 -326 -155 -498 -181 -101 -16 -317 -19 -385 -6 -25 5 -74 14
-110 21 -144 27 -324 105 -469 202 -93 62 -117 83 -217 184 -258 261 -397 626
-381 998 3 72 11 154 17 183 7 30 13 59 14 65 19 96 86 265 147 372 191 335
520 574 902 657 62 13 142 21 242 23 135 3 180 0 280 -19 17 -3 44 -8 60 -11
17 -4 58 -14 91 -25 136 -41 265 8 327 125 29 54 30 173 3 227 -28 57 -76 104
-126 126 -67 28 -230 69 -350 87 -42 7 -405 16 -411 11z m3561 -527 c30 -5 70
-11 88 -14 152 -21 383 -120 540 -232 115 -82 291 -262 334 -344 8 -13 26 -43
41 -66 25 -40 67 -124 100 -203 25 -60 61 -192 72 -266 4 -21 8 -50 11 -64 6
-38 5 -279 -2 -330 -51 -374 -240 -697 -537 -921 -82 -61 -113 -80 -222 -133
-371 -180 -812 -180 -1183 1 -235 114 -448 314 -584 546 -129 221 -185 457
-174 727 11 275 79 481 234 715 207 309 563 533 927 581 28 3 51 7 53 9 7 6
254 2 302 -6z m6580 -17 c557 -120 970 -546 1069 -1103 14 -78 18 -141 16
-254 -1 -82 -5 -162 -9 -177 -3 -16 -8 -38 -10 -50 -69 -398 -343 -766 -713
-956 -93 -48 -238 -103 -308 -117 -336 -68 -637 -33 -917 108 -593 297 -880
955 -697 1597 80 280 258 534 501 715 178 133 413 229 613 251 33 3 62 8 64
10 13 12 308 -6 391 -24z"/>
<path d="M12905 6590 c-11 -35 3 -60 35 -60 20 0 31 6 35 20 11 35 -3 60 -35
60 -20 0 -31 -6 -35 -20z"/>
<path d="M7830 6365 l0 -235 30 0 c20 0 30 5 30 15 0 12 6 12 37 -5 44 -23
110 -26 156 -6 117 50 144 210 51 298 -55 51 -140 63 -207 29 l-37 -19 0 79 0
79 -30 0 -30 0 0 -235z m236 46 c32 -20 64 -74 64 -111 0 -61 -64 -130 -121
-130 -42 0 -92 40 -109 88 -13 37 -13 47 0 84 17 48 67 88 109 88 14 0 40 -9
57 -19z"/>
<path d="M11070 6535 l0 -65 -30 0 c-25 0 -30 -4 -30 -25 0 -21 5 -25 30 -25
l30 0 0 -145 0 -145 30 0 30 0 0 145 0 145 30 0 c25 0 30 4 30 25 0 21 -5 25
-30 25 l-30 0 0 65 0 65 -30 0 -30 0 0 -65z"/>
<path d="M4735 6461 c-48 -22 -69 -44 -90 -94 -39 -93 -3 -185 90 -228 76 -35
190 -16 240 40 19 22 19 23 0 37 -24 18 -39 18 -56 -2 -34 -41 -99 -55 -147
-30 -53 28 -77 64 -77 116 0 38 5 54 25 75 64 68 131 72 197 12 19 -17 27 -19
48 -9 32 15 31 22 -2 54 -54 50 -155 63 -228 29z"/>
<path d="M5535 6466 c-63 -28 -105 -94 -105 -166 0 -104 78 -180 184 -180 108
0 186 75 186 179 0 74 -42 139 -107 167 -41 18 -119 17 -158 0z m134 -54 c97
-52 88 -192 -14 -231 -103 -40 -202 79 -147 178 19 36 72 71 107 71 11 0 36
-8 54 -18z"/>
<path d="M6325 6461 c-48 -22 -69 -44 -90 -94 -39 -93 -3 -185 90 -228 76 -35
190 -16 240 40 19 22 19 23 0 37 -24 18 -39 18 -56 -2 -34 -41 -99 -55 -147
-30 -53 28 -77 64 -77 116 0 38 5 54 25 75 64 68 131 72 197 12 19 -17 27 -19
48 -9 32 15 31 22 -2 54 -54 50 -155 63 -228 29z"/>
<path d="M7125 6466 c-63 -28 -105 -94 -105 -166 0 -104 78 -180 184 -180 108
0 186 75 186 179 0 74 -42 139 -107 167 -41 18 -119 17 -158 0z m134 -54 c97
-52 88 -192 -14 -231 -103 -40 -202 79 -147 178 19 36 72 71 107 71 11 0 36
-8 54 -18z"/>
<path d="M8720 6457 c-120 -63 -119 -254 0 -314 84 -44 185 -24 238 45 25 33
26 35 7 48 -27 20 -39 18 -63 -16 -32 -42 -92 -59 -137 -37 -34 16 -75 68 -75
95 0 9 37 12 150 12 l150 0 0 28 c0 84 -87 162 -180 162 -30 0 -63 -8 -90 -23z
m150 -49 c18 -13 40 -33 48 -45 l14 -23 -116 0 c-64 0 -116 3 -116 6 0 17 25
47 53 64 42 26 77 25 117 -2z"/>
<path d="M9525 6466 c-63 -28 -105 -94 -105 -166 0 -136 144 -223 263 -160 31
17 37 17 37 5 0 -10 10 -15 30 -15 l30 0 0 170 0 170 -30 0 c-20 0 -30 -5 -30
-15 0 -12 -6 -12 -37 5 -43 23 -113 26 -158 6z m133 -56 c36 -22 62 -72 62
-117 0 -58 -64 -123 -121 -123 -53 0 -119 72 -119 130 0 37 32 91 64 111 40
24 73 24 114 -1z"/>
<path d="M13503 6465 c-13 -9 -23 -11 -23 -6 0 6 -13 11 -30 11 l-30 0 0 -170
0 -170 29 0 29 0 4 118 c4 130 18 168 67 178 38 8 56 19 56 35 0 21 -75 23
-102 4z"/>
<path d="M1704 6453 c3 -10 35 -85 70 -168 47 -110 68 -150 81 -150 12 0 30
31 63 108 35 81 49 103 55 90 75 -176 86 -198 101 -198 13 0 35 41 82 149 86
200 83 188 43 184 -31 -3 -35 -8 -71 -93 -21 -49 -41 -98 -46 -108 -5 -14 -18
8 -53 90 -60 141 -67 141 -127 0 -26 -59 -48 -104 -50 -100 -1 5 -22 53 -45
108 -41 96 -44 100 -76 103 -28 3 -32 1 -27 -15z"/>
<path d="M2604 6453 c3 -10 35 -85 70 -168 47 -110 68 -150 81 -150 12 0 30
31 63 108 35 81 49 103 55 90 75 -176 86 -198 101 -198 13 0 35 41 82 149 86
200 83 188 43 184 -31 -3 -35 -8 -71 -93 -21 -49 -41 -98 -46 -108 -5 -14 -18
8 -53 90 -60 141 -67 141 -127 0 -26 -59 -48 -104 -50 -100 -1 5 -22 53 -45
108 -41 96 -44 100 -76 103 -28 3 -32 1 -27 -15z"/>
<path d="M3514 6453 c3 -10 35 -85 70 -168 47 -110 68 -150 81 -150 12 0 30
31 63 108 35 81 49 103 55 90 75 -176 86 -198 101 -198 13 0 35 41 82 149 86
200 83 188 43 184 -31 -3 -35 -8 -71 -93 -21 -49 -41 -98 -46 -108 -5 -14 -18
8 -53 90 -60 141 -67 141 -127 0 -26 -59 -48 -104 -50 -100 -1 5 -22 53 -45
108 -41 96 -44 100 -76 103 -28 3 -32 1 -27 -15z"/>
<path d="M10260 6353 c1 -180 35 -233 150 -233 115 0 149 53 150 233 l0 117
-29 0 -29 0 -4 -126 c-3 -125 -3 -126 -32 -151 -24 -20 -36 -24 -65 -19 -66
10 -76 31 -79 171 l-4 125 -29 0 -29 0 0 -117z"/>
<path d="M11590 6466 c0 -2 29 -67 65 -144 36 -78 65 -148 65 -157 0 -8 -13
-42 -30 -75 -38 -75 -38 -82 2 -78 30 3 34 9 134 223 57 121 103 223 103 228
1 4 -14 7 -31 7 -32 0 -34 -3 -83 -110 -27 -61 -52 -110 -55 -110 -3 0 -28 49
-55 110 -49 107 -51 110 -82 110 -18 0 -33 -2 -33 -4z"/>
<path d="M12910 6300 l0 -170 30 0 30 0 0 170 0 170 -30 0 -30 0 0 -170z"/>
<path d="M4292 6198 c-7 -7 -12 -21 -12 -33 0 -12 5 -26 12 -33 7 -7 21 -12
33 -12 12 0 26 5 33 12 7 7 12 21 12 33 0 12 -5 26 -12 33 -7 7 -21 12 -33 12
-12 0 -26 -5 -33 -12z"/>
<path d="M12362 6198 c-28 -28 -7 -78 33 -78 27 0 45 18 45 45 0 27 -18 45
-45 45 -12 0 -26 -5 -33 -12z"/>
</g>
</svg>
